<svg width="93" height="28" viewBox="0 0 93 28" fill="none" xmlns="http://www.w3.org/2000/svg">
<rect y="1" width="20.401" height="21" rx="5.7" fill="#8776FB"/>
<path d="M16.563 3.7765C17.151 3.6785 17.788 3.68667 18.474 3.801C19.0947 3.899 19.6418 4.06233 20.1155 4.291C20.5402 4.50333 20.8178 4.71567 20.9485 4.928C21.3078 5.467 21.3813 6.16117 21.169 7.0105C21.0873 7.28817 20.9485 7.53317 20.7525 7.7455C20.5402 7.9415 20.2788 8.12117 19.9685 8.2845C19.6092 8.4805 19.2498 8.5785 18.8905 8.5785C18.7108 8.5785 18.5802 8.505 18.4985 8.358C18.4495 8.27633 18.4577 8.09667 18.523 7.819C18.7027 7.21467 18.6373 6.741 18.327 6.398C18.0493 6.07133 17.3633 5.8345 16.269 5.6875C16.122 5.67117 15.975 5.65483 15.828 5.6385C15.093 5.60583 14.4478 5.75283 13.8925 6.0795C13.4352 6.35717 13.1167 6.8145 12.937 7.4515C12.8553 7.82717 12.8553 8.19467 12.937 8.554C13.0677 9.01133 13.3127 9.41967 13.672 9.779C14.0803 10.1547 14.7663 10.5875 15.73 11.0775C16.514 11.4695 17.1102 11.7962 17.5185 12.0575C18.6945 12.8252 19.3887 13.6908 19.601 14.6545C19.6663 15.1118 19.6582 15.561 19.5765 16.002C19.4622 16.5737 19.2172 17.1535 18.8415 17.7415C17.8615 19.2115 16.3507 20.2895 14.309 20.9755C13.8027 21.1388 13.2882 21.2695 12.7655 21.3675C12.2592 21.4655 11.663 21.5145 10.977 21.5145C10.438 21.5308 9.9725 21.4982 9.5805 21.4165C8.29017 21.1388 7.26117 20.5018 6.4935 19.5055C5.9545 18.7542 5.8565 17.8803 6.1995 16.884C6.47717 16.0183 6.97533 15.3405 7.694 14.8505C8.282 14.4585 8.8945 14.238 9.5315 14.189C9.7275 14.189 9.85817 14.2053 9.9235 14.238C10.1522 14.3687 10.193 14.581 10.046 14.875C9.88267 15.2343 9.53967 15.5447 9.017 15.806L8.87 15.8795L8.7965 16.1245C8.68217 16.4838 8.6495 16.7942 8.6985 17.0555C8.71483 17.3168 8.7965 17.57 8.9435 17.815C9.3355 18.3867 9.83367 18.8195 10.438 19.1135C11.467 19.5872 12.5858 19.726 13.7945 19.53C15.5095 19.2197 16.5385 18.403 16.8815 17.08C17.1265 16.149 16.8733 15.2997 16.122 14.532C15.5993 14.0257 14.7663 13.4948 13.623 12.9395C12.9207 12.5802 12.5613 12.4005 12.545 12.4005C10.928 11.4532 10.144 10.3343 10.193 9.044C10.2093 8.554 10.3482 8.0395 10.6095 7.5005C11.1975 6.3245 12.2428 5.36083 13.7455 4.6095C14.6928 4.15217 15.632 3.8745 16.563 3.7765Z" fill="white"/>
<path d="M31.8144 20.7256C30.9384 20.7256 30.1464 20.5756 29.4384 20.2756C28.7424 19.9756 28.1904 19.5436 27.7824 18.9796C27.3744 18.4156 27.1644 17.7496 27.1524 16.9816H29.8524C29.8884 17.4976 30.0684 17.9056 30.3924 18.2056C30.7284 18.5056 31.1844 18.6556 31.7604 18.6556C32.3484 18.6556 32.8104 18.5176 33.1464 18.2416C33.4824 17.9536 33.6504 17.5816 33.6504 17.1256C33.6504 16.7536 33.5364 16.4476 33.3084 16.2076C33.0804 15.9676 32.7924 15.7816 32.4444 15.6496C32.1084 15.5056 31.6404 15.3496 31.0404 15.1816C30.2244 14.9416 29.5584 14.7076 29.0424 14.4796C28.5384 14.2396 28.1004 13.8856 27.7284 13.4176C27.3684 12.9376 27.1884 12.3016 27.1884 11.5096C27.1884 10.7656 27.3744 10.1176 27.7464 9.56561C28.1184 9.01361 28.6404 8.59361 29.3124 8.30561C29.9844 8.00561 30.7524 7.85561 31.6164 7.85561C32.9124 7.85561 33.9624 8.17361 34.7664 8.80961C35.5824 9.43361 36.0324 10.3096 36.1164 11.4376H33.3444C33.3204 11.0056 33.1344 10.6516 32.7864 10.3756C32.4504 10.0876 32.0004 9.94361 31.4364 9.94361C30.9444 9.94361 30.5484 10.0696 30.2484 10.3216C29.9604 10.5736 29.8164 10.9396 29.8164 11.4196C29.8164 11.7556 29.9244 12.0376 30.1404 12.2656C30.3684 12.4816 30.6444 12.6616 30.9684 12.8056C31.3044 12.9376 31.7724 13.0936 32.3724 13.2736C33.1884 13.5136 33.8544 13.7536 34.3704 13.9936C34.8864 14.2336 35.3304 14.5936 35.7024 15.0736C36.0744 15.5536 36.2604 16.1836 36.2604 16.9636C36.2604 17.6356 36.0864 18.2596 35.7384 18.8356C35.3904 19.4116 34.8804 19.8736 34.2084 20.2216C33.5364 20.5576 32.7384 20.7256 31.8144 20.7256ZM37.7971 15.5776C37.7971 14.5696 37.9951 13.6756 38.3911 12.8956C38.7991 12.1156 39.3451 11.5156 40.0291 11.0956C40.7251 10.6756 41.4991 10.4656 42.3511 10.4656C43.0951 10.4656 43.7431 10.6156 44.2951 10.9156C44.8591 11.2156 45.3091 11.5936 45.6451 12.0496V10.6276H48.1831V20.5996H45.6451V19.1416C45.3211 19.6096 44.8711 19.9996 44.2951 20.3116C43.7311 20.6116 43.0771 20.7616 42.3331 20.7616C41.4931 20.7616 40.7251 20.5456 40.0291 20.1136C39.3451 19.6816 38.7991 19.0756 38.3911 18.2956C37.9951 17.5036 37.7971 16.5976 37.7971 15.5776ZM45.6451 15.6136C45.6451 15.0016 45.5251 14.4796 45.2851 14.0476C45.0451 13.6036 44.7211 13.2676 44.3131 13.0396C43.9051 12.7996 43.4671 12.6796 42.9991 12.6796C42.5311 12.6796 42.0991 12.7936 41.7031 13.0216C41.3071 13.2496 40.9831 13.5856 40.7311 14.0296C40.4911 14.4616 40.3711 14.9776 40.3711 15.5776C40.3711 16.1776 40.4911 16.7056 40.7311 17.1616C40.9831 17.6056 41.3071 17.9476 41.7031 18.1876C42.1111 18.4276 42.5431 18.5476 42.9991 18.5476C43.4671 18.5476 43.9051 18.4336 44.3131 18.2056C44.7211 17.9656 45.0451 17.6296 45.2851 17.1976C45.5251 16.7536 45.6451 16.2256 45.6451 15.6136ZM49.9963 15.5776C49.9963 14.5696 50.1943 13.6756 50.5903 12.8956C50.9983 12.1156 51.5443 11.5156 52.2283 11.0956C52.9243 10.6756 53.6983 10.4656 54.5503 10.4656C55.2943 10.4656 55.9423 10.6156 56.4943 10.9156C57.0583 11.2156 57.5083 11.5936 57.8443 12.0496V10.6276H60.3823V20.5996H57.8443V19.1416C57.5203 19.6096 57.0703 19.9996 56.4943 20.3116C55.9303 20.6116 55.2763 20.7616 54.5323 20.7616C53.6923 20.7616 52.9243 20.5456 52.2283 20.1136C51.5443 19.6816 50.9983 19.0756 50.5903 18.2956C50.1943 17.5036 49.9963 16.5976 49.9963 15.5776ZM57.8443 15.6136C57.8443 15.0016 57.7243 14.4796 57.4843 14.0476C57.2443 13.6036 56.9203 13.2676 56.5123 13.0396C56.1043 12.7996 55.6663 12.6796 55.1983 12.6796C54.7303 12.6796 54.2983 12.7936 53.9023 13.0216C53.5063 13.2496 53.1823 13.5856 52.9303 14.0296C52.6903 14.4616 52.5703 14.9776 52.5703 15.5776C52.5703 16.1776 52.6903 16.7056 52.9303 17.1616C53.1823 17.6056 53.5063 17.9476 53.9023 18.1876C54.3103 18.4276 54.7423 18.5476 55.1983 18.5476C55.6663 18.5476 56.1043 18.4336 56.5123 18.2056C56.9203 17.9656 57.2443 17.6296 57.4843 17.1976C57.7243 16.7536 57.8443 16.2256 57.8443 15.6136ZM67.1816 20.7256C66.3056 20.7256 65.5136 20.5756 64.8056 20.2756C64.1096 19.9756 63.5576 19.5436 63.1496 18.9796C62.7416 18.4156 62.5316 17.7496 62.5196 16.9816H65.2196C65.2556 17.4976 65.4356 17.9056 65.7596 18.2056C66.0956 18.5056 66.5516 18.6556 67.1276 18.6556C67.7156 18.6556 68.1776 18.5176 68.5136 18.2416C68.8496 17.9536 69.0176 17.5816 69.0176 17.1256C69.0176 16.7536 68.9036 16.4476 68.6756 16.2076C68.4476 15.9676 68.1596 15.7816 67.8116 15.6496C67.4756 15.5056 67.0076 15.3496 66.4076 15.1816C65.5916 14.9416 64.9256 14.7076 64.4096 14.4796C63.9056 14.2396 63.4676 13.8856 63.0956 13.4176C62.7356 12.9376 62.5556 12.3016 62.5556 11.5096C62.5556 10.7656 62.7416 10.1176 63.1136 9.56561C63.4856 9.01361 64.0076 8.59361 64.6796 8.30561C65.3516 8.00561 66.1196 7.85561 66.9836 7.85561C68.2796 7.85561 69.3296 8.17361 70.1336 8.80961C70.9496 9.43361 71.3996 10.3096 71.4836 11.4376H68.7116C68.6876 11.0056 68.5016 10.6516 68.1536 10.3756C67.8176 10.0876 67.3676 9.94361 66.8036 9.94361C66.3116 9.94361 65.9156 10.0696 65.6156 10.3216C65.3276 10.5736 65.1836 10.9396 65.1836 11.4196C65.1836 11.7556 65.2916 12.0376 65.5076 12.2656C65.7356 12.4816 66.0116 12.6616 66.3356 12.8056C66.6716 12.9376 67.1396 13.0936 67.7396 13.2736C68.5556 13.5136 69.2216 13.7536 69.7376 13.9936C70.2536 14.2336 70.6976 14.5936 71.0696 15.0736C71.4416 15.5536 71.6276 16.1836 71.6276 16.9636C71.6276 17.6356 71.4536 18.2596 71.1056 18.8356C70.7576 19.4116 70.2476 19.8736 69.5756 20.2216C68.9036 20.5576 68.1056 20.7256 67.1816 20.7256ZM76.7463 12.6976V17.5216C76.7463 17.8576 76.8243 18.1036 76.9803 18.2596C77.1483 18.4036 77.4243 18.4756 77.8083 18.4756H78.9783V20.5996H77.3943C75.2703 20.5996 74.2083 19.5676 74.2083 17.5036V12.6976H73.0203V10.6276H74.2083V8.16161H76.7463V10.6276H78.9783V12.6976H76.7463ZM85.2188 20.7616C84.2588 20.7616 83.3948 20.5516 82.6268 20.1316C81.8588 19.6996 81.2528 19.0936 80.8088 18.3136C80.3768 17.5336 80.1608 16.6336 80.1608 15.6136C80.1608 14.5936 80.3828 13.6936 80.8268 12.9136C81.2828 12.1336 81.9008 11.5336 82.6808 11.1136C83.4608 10.6816 84.3308 10.4656 85.2908 10.4656C86.2508 10.4656 87.1208 10.6816 87.9008 11.1136C88.6808 11.5336 89.2928 12.1336 89.7368 12.9136C90.1928 13.6936 90.4208 14.5936 90.4208 15.6136C90.4208 16.6336 90.1868 17.5336 89.7188 18.3136C89.2628 19.0936 88.6388 19.6996 87.8468 20.1316C87.0668 20.5516 86.1908 20.7616 85.2188 20.7616ZM85.2188 18.5656C85.6748 18.5656 86.1008 18.4576 86.4968 18.2416C86.9048 18.0136 87.2288 17.6776 87.4688 17.2336C87.7088 16.7896 87.8288 16.2496 87.8288 15.6136C87.8288 14.6656 87.5768 13.9396 87.0728 13.4356C86.5808 12.9196 85.9748 12.6616 85.2548 12.6616C84.5348 12.6616 83.9288 12.9196 83.4368 13.4356C82.9568 13.9396 82.7168 14.6656 82.7168 15.6136C82.7168 16.5616 82.9508 17.2936 83.4188 17.8096C83.8988 18.3136 84.4988 18.5656 85.2188 18.5656Z" fill="#332C5D"/>
</svg>
